<svg xmlns="http://www.w3.org/2000/svg" xmlns:xlink="http://www.w3.org/1999/xlink" id="Ebene_1" x="0px" y="0px" viewBox="0 0 552 174" style="enable-background:new 0 0 552 174;" xml:space="preserve"><style type="text/css">	.st0{fill:#428135;}</style><g>	<path class="st0" d="M187.82,81.87v-5.46h24.21v5.46h-8.85v24.08h-6.5V81.87H187.82z"></path>	<path class="st0" d="M231.35,76.41c1.32,0,2.52,0.21,3.58,0.64c1.06,0.43,1.97,1.01,2.73,1.76c0.76,0.74,1.34,1.61,1.74,2.59  c0.4,0.98,0.6,2.03,0.6,3.17c0,1.74-0.37,3.24-1.1,4.51c-0.73,1.27-1.92,2.23-3.58,2.9v0.08c0.8,0.22,1.46,0.56,1.99,1.01  c0.52,0.45,0.95,0.99,1.28,1.61c0.33,0.62,0.57,1.3,0.72,2.05c0.15,0.74,0.25,1.49,0.31,2.23c0.03,0.47,0.05,1.02,0.08,1.65  c0.03,0.64,0.08,1.28,0.14,1.95c0.07,0.66,0.18,1.29,0.33,1.88c0.15,0.59,0.38,1.1,0.68,1.51h-6.5c-0.36-0.94-0.58-2.05-0.66-3.35  c-0.08-1.3-0.21-2.54-0.37-3.72c-0.22-1.54-0.69-2.67-1.41-3.39c-0.72-0.72-1.89-1.08-3.52-1.08h-6.5v11.54h-6.5V76.41H231.35z   M229.04,89.78c1.49,0,2.61-0.33,3.35-0.99c0.74-0.66,1.12-1.74,1.12-3.23c0-1.43-0.37-2.48-1.12-3.12  c-0.74-0.65-1.86-0.97-3.35-0.97h-7.12v8.32H229.04z"></path>	<path class="st0" d="M260.03,76.41l11.05,29.54h-6.74l-2.23-6.58h-11.05l-2.32,6.58h-6.54l11.17-29.54H260.03z M260.4,94.53  l-3.72-10.84h-0.08l-3.85,10.84H260.4z"></path>	<path class="st0" d="M278.61,98.67c0.36,0.69,0.83,1.25,1.43,1.68c0.59,0.43,1.29,0.74,2.09,0.95c0.8,0.21,1.63,0.31,2.48,0.31  c0.58,0,1.2-0.05,1.86-0.14c0.66-0.1,1.28-0.28,1.86-0.56c0.58-0.28,1.06-0.65,1.45-1.14c0.39-0.48,0.58-1.1,0.58-1.84  c0-0.8-0.26-1.45-0.77-1.95c-0.51-0.5-1.18-0.91-2.01-1.24c-0.83-0.33-1.76-0.62-2.81-0.87c-1.05-0.25-2.11-0.52-3.19-0.83  c-1.1-0.28-2.18-0.61-3.23-1.01c-1.05-0.4-1.99-0.92-2.81-1.55c-0.83-0.63-1.5-1.43-2.01-2.38s-0.77-2.1-0.77-3.46  c0-1.52,0.32-2.83,0.97-3.95c0.65-1.12,1.5-2.05,2.54-2.79c1.05-0.74,2.23-1.3,3.56-1.66c1.32-0.36,2.65-0.54,3.97-0.54  c1.54,0,3.03,0.17,4.45,0.52c1.42,0.35,2.68,0.9,3.79,1.68c1.1,0.77,1.98,1.76,2.63,2.96c0.65,1.2,0.97,2.65,0.97,4.37h-6.29  c-0.06-0.88-0.24-1.61-0.56-2.19s-0.74-1.03-1.26-1.37s-1.12-0.57-1.8-0.7c-0.68-0.14-1.41-0.21-2.21-0.21  c-0.52,0-1.05,0.06-1.57,0.17c-0.52,0.11-1,0.3-1.43,0.58c-0.43,0.28-0.78,0.62-1.06,1.03c-0.28,0.41-0.41,0.94-0.41,1.57  c0,0.58,0.11,1.05,0.33,1.41c0.22,0.36,0.65,0.69,1.3,0.99c0.65,0.3,1.54,0.61,2.69,0.91c1.15,0.3,2.64,0.69,4.49,1.16  c0.55,0.11,1.32,0.31,2.3,0.6c0.98,0.29,1.95,0.75,2.92,1.39c0.96,0.63,1.8,1.48,2.5,2.54c0.7,1.06,1.06,2.42,1.06,4.08  c0,1.35-0.26,2.61-0.79,3.77c-0.52,1.16-1.3,2.16-2.34,3c-1.03,0.84-2.32,1.5-3.85,1.97c-1.53,0.47-3.3,0.7-5.32,0.7  c-1.63,0-3.21-0.2-4.74-0.6c-1.53-0.4-2.88-1.03-4.06-1.88c-1.17-0.85-2.1-1.94-2.79-3.27s-1.02-2.9-0.99-4.72h6.29  C278.07,97.14,278.25,97.98,278.61,98.67z"></path>	<path class="st0" d="M306.99,76.41v11.34h11.96V76.41h6.5v29.54h-6.5V93.21h-11.96v12.74h-6.5V76.41H306.99z"></path>	<path class="st0" d="M352.88,103.7c-2.23,1.94-5.32,2.92-9.27,2.92c-4,0-7.1-0.97-9.29-2.9c-2.19-1.93-3.29-4.91-3.29-8.94V76.41  h6.5v18.37c0,0.8,0.07,1.59,0.21,2.36c0.14,0.77,0.43,1.46,0.87,2.05c0.44,0.59,1.05,1.08,1.84,1.45c0.79,0.37,1.84,0.56,3.16,0.56  c2.32,0,3.92-0.52,4.8-1.55c0.88-1.03,1.32-2.65,1.32-4.86V76.41h6.5v18.37C356.23,98.78,355.11,101.76,352.88,103.7z"></path>	<path class="st0" d="M370.96,76.41l6.91,20.32h0.08l6.54-20.32h9.14v29.54h-6.08V85.02h-0.08l-7.24,20.94h-5.01l-7.24-20.73h-0.08  v20.73h-6.08V76.41H370.96z"></path>	<path class="st0" d="M414.08,76.41l11.05,29.54h-6.74l-2.23-6.58H405.1l-2.32,6.58h-6.54l11.17-29.54H414.08z M414.45,94.53  l-3.72-10.84h-0.08l-3.85,10.84H414.45z"></path>	<path class="st0" d="M434.15,76.41l12.33,19.82h0.08V76.41h6.08v29.54h-6.5l-12.29-19.78h-0.08v19.78h-6.08V76.41H434.15z"></path>	<path class="st0" d="M477.31,84.29c-0.39-0.62-0.87-1.17-1.45-1.63c-0.58-0.47-1.23-0.83-1.96-1.1c-0.73-0.26-1.5-0.39-2.3-0.39  c-1.46,0-2.7,0.28-3.72,0.85c-1.02,0.57-1.85,1.32-2.48,2.28c-0.63,0.95-1.1,2.03-1.39,3.25c-0.29,1.21-0.43,2.47-0.43,3.77  c0,1.24,0.14,2.45,0.43,3.62c0.29,1.17,0.75,2.23,1.39,3.17c0.63,0.94,1.46,1.69,2.48,2.25s2.26,0.85,3.72,0.85  c1.99,0,3.54-0.61,4.66-1.82c1.12-1.21,1.8-2.81,2.05-4.8h6.29c-0.17,1.85-0.59,3.52-1.28,5.01c-0.69,1.49-1.6,2.76-2.73,3.81  c-1.13,1.05-2.46,1.85-3.97,2.4c-1.52,0.55-3.19,0.83-5.01,0.83c-2.26,0-4.3-0.39-6.1-1.18c-1.81-0.79-3.33-1.87-4.57-3.25  c-1.24-1.38-2.19-3-2.86-4.86c-0.66-1.86-0.99-3.87-0.99-6.02c0-2.21,0.33-4.25,0.99-6.14c0.66-1.89,1.61-3.54,2.86-4.94  s2.77-2.51,4.57-3.31c1.81-0.8,3.84-1.2,6.1-1.2c1.63,0,3.17,0.23,4.61,0.7c1.45,0.47,2.74,1.15,3.89,2.05  c1.15,0.9,2.09,2.01,2.83,3.33c0.74,1.32,1.21,2.84,1.41,4.55h-6.29C477.94,85.6,477.69,84.91,477.31,84.29z"></path>	<path class="st0" d="M495.51,76.41v29.54h-6.5V76.41H495.51z"></path>	<path class="st0" d="M515.95,76.41L527,105.96h-6.74l-2.23-6.58h-11.05l-2.32,6.58h-6.54l11.17-29.54H515.95z M516.32,94.53  l-3.72-10.84h-0.08l-3.85,10.84H516.32z"></path></g><g>	<path class="st0" d="M211.78,30.53v5.46H197.5v6.83h12.37v5.05H197.5v12.21H191V30.53H211.78z"></path>	<path class="st0" d="M237.26,57.81c-2.23,1.94-5.32,2.92-9.27,2.92c-4,0-7.1-0.97-9.29-2.9c-2.19-1.93-3.29-4.91-3.29-8.94V30.53  h6.5V48.9c0,0.8,0.07,1.59,0.21,2.36c0.14,0.77,0.43,1.46,0.87,2.05c0.44,0.59,1.05,1.08,1.84,1.45c0.79,0.37,1.84,0.56,3.17,0.56  c2.32,0,3.92-0.52,4.8-1.55c0.88-1.03,1.32-2.65,1.32-4.86V30.53h6.5V48.9C240.62,52.9,239.5,55.87,237.26,57.81z"></path>	<path class="st0" d="M252.66,30.53l12.33,19.82h0.08V30.53h6.08v29.54h-6.5l-12.29-19.78h-0.08v19.78h-6.08V30.53H252.66z"></path>	<path class="st0" d="M289.61,30.53c1.9,0,3.68,0.3,5.32,0.91c1.64,0.61,3.06,1.52,4.26,2.73c1.2,1.21,2.14,2.73,2.81,4.55  c0.68,1.82,1.01,3.96,1.01,6.41c0,2.15-0.28,4.14-0.83,5.96c-0.55,1.82-1.39,3.39-2.5,4.72c-1.12,1.32-2.51,2.37-4.18,3.12  c-1.67,0.76-3.64,1.14-5.9,1.14h-12.74V30.53H289.61z M289.15,54.61c0.94,0,1.85-0.15,2.73-0.46c0.88-0.3,1.67-0.81,2.36-1.51  c0.69-0.7,1.24-1.62,1.66-2.75c0.41-1.13,0.62-2.51,0.62-4.14c0-1.49-0.15-2.83-0.44-4.03c-0.29-1.2-0.76-2.23-1.43-3.08  c-0.66-0.85-1.54-1.51-2.63-1.97c-1.09-0.46-2.43-0.68-4.03-0.68h-4.64v18.62H289.15z"></path>	<path class="st0" d="M322.25,30.53l11.05,29.54h-6.74l-2.23-6.58h-11.05l-2.32,6.58h-6.54l11.17-29.54H322.25z M322.63,48.65  l-3.72-10.84h-0.08l-3.85,10.84H322.63z"></path>	<path class="st0" d="M354.82,38.41c-0.39-0.62-0.87-1.17-1.45-1.63c-0.58-0.47-1.23-0.83-1.96-1.1c-0.73-0.26-1.5-0.39-2.3-0.39  c-1.46,0-2.7,0.28-3.72,0.85c-1.02,0.57-1.85,1.32-2.48,2.28c-0.63,0.95-1.1,2.03-1.39,3.25c-0.29,1.21-0.43,2.47-0.43,3.77  c0,1.24,0.14,2.45,0.43,3.62c0.29,1.17,0.75,2.23,1.39,3.17c0.63,0.94,1.46,1.69,2.48,2.26c1.02,0.57,2.26,0.85,3.72,0.85  c1.99,0,3.54-0.61,4.66-1.82c1.12-1.21,1.8-2.81,2.05-4.8h6.29c-0.17,1.85-0.59,3.52-1.28,5.01c-0.69,1.49-1.6,2.76-2.73,3.81  c-1.13,1.05-2.46,1.85-3.97,2.4c-1.52,0.55-3.19,0.83-5.01,0.83c-2.26,0-4.3-0.39-6.1-1.18c-1.81-0.79-3.33-1.87-4.57-3.25  c-1.24-1.38-2.19-3-2.86-4.86c-0.66-1.86-0.99-3.87-0.99-6.02c0-2.21,0.33-4.25,0.99-6.14c0.66-1.89,1.61-3.54,2.86-4.94  c1.24-1.41,2.77-2.51,4.57-3.31c1.81-0.8,3.84-1.2,6.1-1.2c1.63,0,3.17,0.23,4.61,0.7c1.45,0.47,2.74,1.15,3.89,2.05  c1.15,0.9,2.09,2.01,2.83,3.33c0.74,1.32,1.21,2.84,1.41,4.55h-6.29C355.45,39.71,355.21,39.03,354.82,38.41z"></path>	<path class="st0" d="M373.02,30.53v29.54h-6.5V30.53H373.02z"></path>	<path class="st0" d="M378.45,39.28c0.66-1.89,1.61-3.54,2.86-4.94c1.24-1.41,2.77-2.51,4.57-3.31c1.81-0.8,3.84-1.2,6.1-1.2  c2.29,0,4.33,0.4,6.12,1.2c1.79,0.8,3.31,1.9,4.55,3.31c1.24,1.41,2.19,3.06,2.86,4.94c0.66,1.89,0.99,3.94,0.99,6.14  c0,2.15-0.33,4.16-0.99,6.02c-0.66,1.86-1.61,3.48-2.86,4.86c-1.24,1.38-2.76,2.46-4.55,3.25c-1.79,0.79-3.83,1.18-6.12,1.18  c-2.26,0-4.3-0.39-6.1-1.18c-1.81-0.79-3.33-1.87-4.57-3.25c-1.24-1.38-2.19-3-2.86-4.86c-0.66-1.86-0.99-3.87-0.99-6.02  C377.45,43.22,377.78,41.17,378.45,39.28z M384.38,49.04c0.29,1.17,0.75,2.23,1.39,3.17c0.63,0.94,1.46,1.69,2.48,2.26  c1.02,0.57,2.26,0.85,3.72,0.85c1.46,0,2.7-0.28,3.72-0.85c1.02-0.57,1.85-1.32,2.48-2.26c0.63-0.94,1.1-1.99,1.39-3.17  c0.29-1.17,0.43-2.38,0.43-3.62c0-1.3-0.14-2.55-0.43-3.77c-0.29-1.21-0.75-2.3-1.39-3.25c-0.63-0.95-1.46-1.71-2.48-2.28  c-1.02-0.57-2.26-0.85-3.72-0.85c-1.46,0-2.7,0.28-3.72,0.85c-1.02,0.57-1.85,1.32-2.48,2.28c-0.63,0.95-1.1,2.03-1.39,3.25  c-0.29,1.21-0.43,2.47-0.43,3.77C383.95,46.66,384.09,47.87,384.38,49.04z M393.01,20.55l-4.39,7.32h4.1l6.74-7.32H393.01z"></path>	<path class="st0" d="M417.38,30.53l12.33,19.82h0.08V30.53h6.08v29.54h-6.5l-12.29-19.78h-0.08v19.78h-6.08V30.53H417.38z"></path></g><g>	<path class="st0" d="M188.07,121.86h7.28l6.91,11.67l6.87-11.67h7.24l-10.96,18.21v11.34h-6.5v-11.5L188.07,121.86z"></path>	<path class="st0" d="M236.81,121.86l12.33,19.82h0.08v-19.82h6.08v29.54h-6.5l-12.29-19.78h-0.08v19.78h-6.08v-29.54H236.81z"></path>	<path class="st0" d="M275.75,121.86l11.05,29.54h-6.74l-2.24-6.58h-11.05l-2.32,6.58h-6.54l11.17-29.54H275.75z M276.12,139.99  l-3.72-10.84h-0.08l-3.85,10.84H276.12z"></path>	<path class="st0" d="M283.24,127.32v-5.46h24.21v5.46h-8.85v24.08h-6.5v-24.08H283.24z"></path>	<path class="st0" d="M332.56,149.15c-2.23,1.94-5.32,2.92-9.27,2.92c-4,0-7.1-0.97-9.29-2.9c-2.19-1.93-3.29-4.91-3.29-8.94v-18.37  h6.5v18.37c0,0.8,0.07,1.59,0.21,2.36c0.14,0.77,0.43,1.46,0.87,2.05c0.44,0.59,1.05,1.08,1.84,1.45c0.79,0.37,1.84,0.56,3.16,0.56  c2.32,0,3.92-0.52,4.8-1.55c0.88-1.03,1.32-2.66,1.32-4.86v-18.37h6.5v18.37C335.91,144.23,334.8,147.21,332.56,149.15z"></path>	<path class="st0" d="M357.43,121.86c1.32,0,2.52,0.21,3.58,0.64c1.06,0.43,1.97,1.01,2.73,1.76c0.76,0.74,1.34,1.61,1.74,2.59  c0.4,0.98,0.6,2.03,0.6,3.17c0,1.74-0.37,3.24-1.1,4.51c-0.73,1.27-1.92,2.24-3.58,2.9v0.08c0.8,0.22,1.46,0.56,1.99,1.01  s0.95,0.99,1.28,1.61c0.33,0.62,0.57,1.3,0.72,2.05c0.15,0.74,0.25,1.49,0.31,2.23c0.03,0.47,0.05,1.02,0.08,1.65  c0.03,0.64,0.08,1.28,0.14,1.95c0.07,0.66,0.18,1.29,0.33,1.88c0.15,0.59,0.38,1.1,0.68,1.51h-6.5c-0.36-0.94-0.58-2.05-0.66-3.35  c-0.08-1.3-0.21-2.54-0.37-3.72c-0.22-1.54-0.69-2.67-1.41-3.39c-0.72-0.72-1.89-1.08-3.52-1.08H348v11.54h-6.5v-29.54H357.43z   M355.11,135.23c1.49,0,2.61-0.33,3.35-0.99s1.12-1.74,1.12-3.23c0-1.44-0.37-2.48-1.12-3.12c-0.74-0.65-1.86-0.97-3.35-0.97H348  v8.32H355.11z"></path>	<path class="st0" d="M386.1,121.86l11.05,29.54h-6.74l-2.23-6.58h-11.05l-2.32,6.58h-6.54l11.17-29.54H386.1z M386.48,139.99  l-3.72-10.84h-0.08l-3.85,10.84H386.48z"></path>	<path class="st0" d="M406.21,121.86v24.08h14.4v5.46h-20.9v-29.54H406.21z"></path>	<path class="st0" d="M446.35,121.86v5.46h-15.6v6.33h14.32v5.05h-14.32v7.24h15.93v5.46h-22.43v-29.54H446.35z"></path>	<path class="st0" d="M465.01,127.32h-14.61v-5.46h23.25v5.13l-15.85,18.95h16.26v5.46h-24.91v-5.13L465.01,127.32z"></path>	<path class="st0" d="M492.61,121.86l11.05,29.54h-6.74l-2.23-6.58h-11.05l-2.32,6.58h-6.54l11.17-29.54H492.61z M492.98,139.99  l-3.72-10.84h-0.08l-3.85,10.84H492.98z"></path></g><g>	<path class="st0" d="M162.42,89.55c-0.04,37.67-30.27,68.85-68.7,68.88c-38.91,0.02-69.4-31.84-68.8-70.06  c0.59-37.47,31.11-67.87,68.91-67.81C131.7,20.61,162.4,51.46,162.42,89.55z M79.51,81.33c0.12,0.03,0.24,0.05,0.36,0.08  c-0.06-0.09-0.11-0.19-0.17-0.28c-2.32-1.94-4.42-4.09-6.11-6.61c-6.7-9.99-9.72-21.22-11.01-33.02c-0.21-1.94-0.23-3.9-0.33-5.88  c-8.11,4.27-18.25,13.48-24.42,25.81c-4.09,8.17-6.33,16.81-6.64,26.13c0.43-0.22,0.64-0.33,0.86-0.43  c2.62-1.24,5.19-2.62,7.87-3.7c9.5-3.84,19.37-5.15,29.53-3.89C72.84,79.95,76.17,80.72,79.51,81.33z M156.15,91.18  c-15.99,8.65-32.59,10.43-49.95,6.49c0.06,0.34,0.05,0.43,0.09,0.47c0.27,0.29,0.55,0.56,0.83,0.84  c6.22,6.12,10.81,13.24,13.39,21.63c1.78,5.8,2.53,11.76,2.97,17.77c0.14,1.98,0.26,3.97,0.41,6.17c10.06-5.68,17.87-13.3,23.61-23  C152.95,112.31,155.82,102.3,156.15,91.18z M106.81,81.95c8.53-1.49,16.97-2.15,25.48-1.09c8.62,1.08,16.37,4.49,23.8,9.01  c0.27-9.91-2.48-24.34-12.09-37.36c-4.83-6.53-10.66-11.97-17.67-16.25C125.65,54.08,119.52,69.33,106.81,81.95z M64.3,34.43  c0.47,0.27,0.83,0.49,1.21,0.69c3.95,2.14,7.41,4.9,10.51,8.13c6.79,7.06,11.49,15.44,15.18,24.43c0.91,2.21,1.7,4.46,2.64,6.94  c2.66-8.43,5.95-16.29,11.22-23.18c5.3-6.94,12.25-11.83,19.96-15.88C107.34,24.72,82.8,24.05,64.3,34.43z M93.19,104.97  c-0.82,2.02-1.6,4.06-2.46,6.06c-2.31,5.42-4.99,10.64-8.38,15.47c-4.17,5.93-9.64,10.35-15.9,13.88c-1.64,0.92-3.24,1.93-5.03,3  c10.91,6.47,22.47,9.41,34.89,8.92c9.4-0.37,18.25-2.78,26.8-7.33C106.86,136.14,96.06,123.55,93.19,104.97z M31.13,89.21  c0.07,12.44,3.21,23.66,9.68,33.93c5,7.94,11.48,14.39,19.56,19.59c0-0.52,0.01-0.79,0-1.06c-0.24-6.41,0.69-12.65,2.79-18.71  c3.16-9.1,8.41-16.9,14.99-23.86c0.61-0.65,1.22-1.3,1.83-1.95c-8.43,1.59-16.78,2.34-25.23,1.2  C46.25,97.2,38.48,94.16,31.13,89.21z M117.45,133.12c0.26-9.21-11.49-30.1-18.63-33.16C98.34,107.98,110.98,130.49,117.45,133.12z   M142.24,90.33c-0.48-0.2-0.71-0.31-0.94-0.39c-5.79-1.97-11.71-3.32-17.82-3.68c-6-0.35-11.88,0.25-17.48,2.62  c-0.44,0.19-0.86,0.42-1.46,0.71c0.46,0.21,0.7,0.35,0.96,0.43c9.39,3.08,18.95,4.39,28.79,2.82  C136.97,92.42,139.57,91.66,142.24,90.33z M68.05,131.4c8.03-4.29,20.52-25.49,19.21-32.61C79.94,102.74,67.63,123.65,68.05,131.4z   M82.3,88.86c-2.21-1.43-12.33-3.26-17.92-3.3c-6.84-0.05-13.47,0.91-19.76,3.93C50.85,93.8,75.48,93.35,82.3,88.86z M118.07,47.13  c-9.61,8.8-16.75,19.05-19.21,32.33C106.55,76.08,118.78,55.51,118.07,47.13z M87.77,79.45c0.13-9.52-11.59-29.78-18.75-32.36  C72.12,59.87,77.58,71.01,87.77,79.45z"></path></g></svg>